%TF.GenerationSoftware,KiCad,Pcbnew,7.0.1*%
%TF.CreationDate,2023-04-23T09:13:03+12:00*%
%TF.ProjectId,Cocktail PCB,436f636b-7461-4696-9c20-5043422e6b69,rev?*%
%TF.SameCoordinates,Original*%
%TF.FileFunction,Paste,Top*%
%TF.FilePolarity,Positive*%
%FSLAX46Y46*%
G04 Gerber Fmt 4.6, Leading zero omitted, Abs format (unit mm)*
G04 Created by KiCad (PCBNEW 7.0.1) date 2023-04-23 09:13:03*
%MOMM*%
%LPD*%
G01*
G04 APERTURE LIST*
G04 Aperture macros list*
%AMRoundRect*
0 Rectangle with rounded corners*
0 $1 Rounding radius*
0 $2 $3 $4 $5 $6 $7 $8 $9 X,Y pos of 4 corners*
0 Add a 4 corners polygon primitive as box body*
4,1,4,$2,$3,$4,$5,$6,$7,$8,$9,$2,$3,0*
0 Add four circle primitives for the rounded corners*
1,1,$1+$1,$2,$3*
1,1,$1+$1,$4,$5*
1,1,$1+$1,$6,$7*
1,1,$1+$1,$8,$9*
0 Add four rect primitives between the rounded corners*
20,1,$1+$1,$2,$3,$4,$5,0*
20,1,$1+$1,$4,$5,$6,$7,0*
20,1,$1+$1,$6,$7,$8,$9,0*
20,1,$1+$1,$8,$9,$2,$3,0*%
G04 Aperture macros list end*
%ADD10RoundRect,0.250000X-0.350000X-0.450000X0.350000X-0.450000X0.350000X0.450000X-0.350000X0.450000X0*%
%ADD11RoundRect,0.250000X0.350000X0.450000X-0.350000X0.450000X-0.350000X-0.450000X0.350000X-0.450000X0*%
G04 APERTURE END LIST*
D10*
X191675000Y-99060000D03*
X193675000Y-99060000D03*
X180245000Y-93345000D03*
X182245000Y-93345000D03*
X191675000Y-92710000D03*
X193675000Y-92710000D03*
X180245000Y-100965000D03*
X182245000Y-100965000D03*
X180245000Y-111760000D03*
X182245000Y-111760000D03*
D11*
X167640000Y-130175000D03*
X165640000Y-130175000D03*
X172450000Y-57150000D03*
X170450000Y-57150000D03*
D10*
X179070000Y-57150000D03*
X181070000Y-57150000D03*
D11*
X155670000Y-130175000D03*
X153670000Y-130175000D03*
X186690000Y-130175000D03*
X184690000Y-130175000D03*
X187420000Y-57150000D03*
X185420000Y-57150000D03*
D10*
X159385000Y-130175000D03*
X161385000Y-130175000D03*
X133985000Y-57150000D03*
X135985000Y-57150000D03*
X180245000Y-95885000D03*
X182245000Y-95885000D03*
X147860000Y-57150000D03*
X149860000Y-57150000D03*
D11*
X174720000Y-130175000D03*
X172720000Y-130175000D03*
D10*
X163830000Y-57150000D03*
X165830000Y-57150000D03*
D11*
X156210000Y-57150000D03*
X154210000Y-57150000D03*
D10*
X191675000Y-95885000D03*
X193675000Y-95885000D03*
X180245000Y-98425000D03*
X182245000Y-98425000D03*
D11*
X182245000Y-116205000D03*
X180245000Y-116205000D03*
X142240000Y-57150000D03*
X140240000Y-57150000D03*
D10*
X191675000Y-102235000D03*
X193675000Y-102235000D03*
X178340000Y-130175000D03*
X180340000Y-130175000D03*
M02*
