%TF.GenerationSoftware,KiCad,Pcbnew,7.0.1*%
%TF.CreationDate,2023-04-23T09:13:03+12:00*%
%TF.ProjectId,Cocktail PCB,436f636b-7461-4696-9c20-5043422e6b69,rev?*%
%TF.SameCoordinates,Original*%
%TF.FileFunction,Copper,L2,Bot*%
%TF.FilePolarity,Positive*%
%FSLAX46Y46*%
G04 Gerber Fmt 4.6, Leading zero omitted, Abs format (unit mm)*
G04 Created by KiCad (PCBNEW 7.0.1) date 2023-04-23 09:13:03*
%MOMM*%
%LPD*%
G01*
G04 APERTURE LIST*
%TA.AperFunction,ComponentPad*%
%ADD10R,0.990600X3.200400*%
%TD*%
%TA.AperFunction,ComponentPad*%
%ADD11R,3.200400X0.990600*%
%TD*%
%TA.AperFunction,ComponentPad*%
%ADD12C,7.000000*%
%TD*%
%TA.AperFunction,ComponentPad*%
%ADD13R,1.700000X1.700000*%
%TD*%
%TA.AperFunction,ComponentPad*%
%ADD14O,1.700000X1.700000*%
%TD*%
%TA.AperFunction,ComponentPad*%
%ADD15R,2.200000X2.200000*%
%TD*%
%TA.AperFunction,ComponentPad*%
%ADD16O,2.200000X2.200000*%
%TD*%
%TA.AperFunction,ComponentPad*%
%ADD17R,1.980000X1.980000*%
%TD*%
%TA.AperFunction,ComponentPad*%
%ADD18C,1.980000*%
%TD*%
%TA.AperFunction,ComponentPad*%
%ADD19R,1.600000X1.600000*%
%TD*%
%TA.AperFunction,ComponentPad*%
%ADD20C,1.600000*%
%TD*%
%TA.AperFunction,ComponentPad*%
%ADD21C,1.524000*%
%TD*%
%TA.AperFunction,ViaPad*%
%ADD22C,1.000000*%
%TD*%
%TA.AperFunction,ViaPad*%
%ADD23C,0.800000*%
%TD*%
%TA.AperFunction,Conductor*%
%ADD24C,1.000000*%
%TD*%
%TA.AperFunction,Conductor*%
%ADD25C,0.500000*%
%TD*%
%TA.AperFunction,Conductor*%
%ADD26C,0.250000*%
%TD*%
G04 APERTURE END LIST*
D10*
X180236000Y-79248000D03*
X186436000Y-79248000D03*
D11*
X183336001Y-74248000D03*
D12*
X201168000Y-134112000D03*
X106680000Y-134112000D03*
X201168000Y-32512000D03*
X106680000Y-32512000D03*
D13*
X174625000Y-113660000D03*
D14*
X174625000Y-116200000D03*
D13*
X181610000Y-39370000D03*
D14*
X184150000Y-39370000D03*
D15*
X162560000Y-44450000D03*
D16*
X172720000Y-44450000D03*
D13*
X184145000Y-126365000D03*
D14*
X186685000Y-126365000D03*
D13*
X200010000Y-39370000D03*
D14*
X197470000Y-39370000D03*
X194930000Y-39370000D03*
D17*
X149540000Y-52070000D03*
D18*
X152240000Y-52070000D03*
X154940000Y-52070000D03*
D15*
X147320000Y-44450000D03*
D16*
X157480000Y-44450000D03*
D17*
X180180000Y-52070000D03*
D18*
X182880000Y-52070000D03*
X185580000Y-52070000D03*
D13*
X137160000Y-39370000D03*
D14*
X139700000Y-39370000D03*
D13*
X186690000Y-67945000D03*
D14*
X184150000Y-67945000D03*
D19*
X113665000Y-83312000D03*
D20*
X113665000Y-85812000D03*
D13*
X172720000Y-77470000D03*
D14*
X172720000Y-74930000D03*
X172720000Y-72390000D03*
X172720000Y-69850000D03*
D13*
X123825000Y-126365000D03*
D14*
X121285000Y-126365000D03*
X118745000Y-126365000D03*
X116205000Y-126365000D03*
X113665000Y-126365000D03*
D13*
X165100000Y-126365000D03*
D14*
X167640000Y-126365000D03*
D13*
X121920000Y-39370000D03*
D14*
X119380000Y-39370000D03*
X116840000Y-39370000D03*
X114300000Y-39370000D03*
D13*
X187325000Y-111760000D03*
D14*
X187325000Y-114300000D03*
X187325000Y-116840000D03*
D21*
X111760000Y-75565000D03*
X114300000Y-75525000D03*
X116840000Y-75565000D03*
X116840000Y-67945000D03*
X114300000Y-67905000D03*
X111760000Y-67945000D03*
D13*
X151130000Y-39370000D03*
D14*
X153670000Y-39370000D03*
D17*
X124460000Y-86520000D03*
D18*
X124460000Y-83820000D03*
X124460000Y-81120000D03*
D21*
X136525000Y-67310000D03*
X136525000Y-69850000D03*
X136525000Y-72390000D03*
X136525000Y-74930000D03*
X136525000Y-77470000D03*
X136525000Y-80010000D03*
X136525000Y-82550000D03*
X136525000Y-85090000D03*
X136525000Y-87630000D03*
X136525000Y-90170000D03*
X136525000Y-92710000D03*
X136525000Y-95250000D03*
X136525000Y-97790000D03*
X136525000Y-100330000D03*
X136525000Y-102870000D03*
X136525000Y-105410000D03*
X136525000Y-107950000D03*
X136525000Y-110490000D03*
X161925000Y-67310000D03*
X161925000Y-69850000D03*
X161925000Y-72390000D03*
X161925000Y-74930000D03*
X161925000Y-77470000D03*
X161925000Y-80010000D03*
X161925000Y-82550000D03*
X161925000Y-85090000D03*
X161925000Y-87630000D03*
X161925000Y-90170000D03*
X161925000Y-92710000D03*
X161925000Y-95250000D03*
X161933619Y-97790000D03*
X161925000Y-100330000D03*
X161925000Y-102870000D03*
X161925000Y-105410000D03*
X161925000Y-107950000D03*
X161925000Y-110490000D03*
D17*
X135570000Y-52070000D03*
D18*
X138270000Y-52070000D03*
X140970000Y-52070000D03*
D17*
X165210000Y-52070000D03*
D18*
X167910000Y-52070000D03*
X170610000Y-52070000D03*
D21*
X116205000Y-92710000D03*
X118745000Y-92710000D03*
X121285000Y-92710000D03*
X123825000Y-92710000D03*
X113665000Y-120650000D03*
X116205000Y-120650000D03*
X118745000Y-120650000D03*
X121285000Y-120650000D03*
X123825000Y-120650000D03*
D15*
X177800000Y-44450000D03*
D16*
X187960000Y-44450000D03*
D13*
X187325000Y-88265000D03*
D14*
X187325000Y-90805000D03*
X187325000Y-93345000D03*
X187325000Y-95885000D03*
X187325000Y-98425000D03*
X187325000Y-100965000D03*
X187325000Y-103505000D03*
D13*
X174005000Y-126365000D03*
D14*
X176545000Y-126365000D03*
X179085000Y-126365000D03*
D13*
X154940000Y-126365000D03*
D14*
X157480000Y-126365000D03*
X160020000Y-126365000D03*
D15*
X133030000Y-44450000D03*
D16*
X143190000Y-44450000D03*
D13*
X166370000Y-39370000D03*
D14*
X168910000Y-39370000D03*
D13*
X172720000Y-85852000D03*
D14*
X172720000Y-88392000D03*
X172720000Y-90932000D03*
X172720000Y-93472000D03*
X172720000Y-96012000D03*
X172720000Y-98552000D03*
D21*
X109220000Y-59690000D03*
X111760000Y-59690000D03*
X114300000Y-59690000D03*
X116840000Y-59690000D03*
X119380000Y-59690000D03*
X121920000Y-59690000D03*
X124460000Y-59690000D03*
X127000000Y-59690000D03*
X109220000Y-46990000D03*
X111760000Y-46990000D03*
X114300000Y-46990000D03*
X116840000Y-46990000D03*
X119380000Y-46990000D03*
X121920000Y-46990000D03*
X124460000Y-46990000D03*
X127000000Y-46990000D03*
D22*
X128905000Y-99695000D03*
D23*
X188595000Y-130175000D03*
X192405000Y-80645000D03*
X170815000Y-128905000D03*
X177165000Y-108585000D03*
X157480000Y-111125000D03*
D24*
X180236000Y-75080000D02*
X180236000Y-79248000D01*
X182880000Y-62865000D02*
X177800000Y-67945000D01*
X187960000Y-62865000D02*
X182880000Y-62865000D01*
X191135000Y-39370000D02*
X191135000Y-59690000D01*
X177800000Y-72644000D02*
X180236000Y-75080000D01*
X186055000Y-34290000D02*
X191135000Y-39370000D01*
X176530000Y-34290000D02*
X186055000Y-34290000D01*
X191135000Y-59690000D02*
X187960000Y-62865000D01*
X177800000Y-67945000D02*
X177800000Y-72644000D01*
X128270000Y-90332581D02*
X128270000Y-90330000D01*
X106045000Y-93980000D02*
X109220000Y-97155000D01*
X106045000Y-52705000D02*
X106045000Y-93980000D01*
X109220000Y-40640000D02*
X109220000Y-49530000D01*
X109220000Y-97155000D02*
X121447581Y-97155000D01*
X121447581Y-97155000D02*
X128270000Y-90332581D01*
X115570000Y-34290000D02*
X109220000Y-40640000D01*
X132080000Y-34290000D02*
X115570000Y-34290000D01*
X109220000Y-49530000D02*
X106045000Y-52705000D01*
D25*
X128905000Y-108585000D02*
X133980000Y-113660000D01*
X128905000Y-99695000D02*
X128905000Y-108585000D01*
X133980000Y-113660000D02*
X174625000Y-113660000D01*
D26*
X118745000Y-92710000D02*
X118745000Y-75565000D01*
X148590000Y-64135000D02*
X161925000Y-77470000D01*
X172720000Y-72390000D02*
X167640000Y-77470000D01*
X130175000Y-64135000D02*
X148590000Y-64135000D01*
X167640000Y-77470000D02*
X161925000Y-77470000D01*
X118745000Y-75565000D02*
X130175000Y-64135000D01*
X112395000Y-70485000D02*
X119380000Y-70485000D01*
X154305000Y-62230000D02*
X161925000Y-69850000D01*
X113030000Y-93980000D02*
X107950000Y-88900000D01*
X107950000Y-88900000D02*
X107950000Y-74930000D01*
X121285000Y-92710000D02*
X120015000Y-93980000D01*
X172720000Y-69850000D02*
X161925000Y-69850000D01*
X127635000Y-62230000D02*
X154305000Y-62230000D01*
X119380000Y-70485000D02*
X127635000Y-62230000D01*
X120015000Y-93980000D02*
X113030000Y-93980000D01*
X107950000Y-74930000D02*
X112395000Y-70485000D01*
X165608000Y-86360000D02*
X161036000Y-86360000D01*
X160528000Y-83947000D02*
X161925000Y-82550000D01*
X172720000Y-93472000D02*
X165608000Y-86360000D01*
X160528000Y-85852000D02*
X160528000Y-83947000D01*
X161036000Y-86360000D02*
X160528000Y-85852000D01*
D24*
X138065000Y-51800000D02*
X143190000Y-46675000D01*
X143190000Y-44450000D02*
X139700000Y-40960000D01*
X143190000Y-46675000D02*
X143190000Y-44450000D01*
X139700000Y-40960000D02*
X139700000Y-39370000D01*
X157320000Y-44290000D02*
X153830000Y-40800000D01*
X157480000Y-46355000D02*
X157480000Y-44450000D01*
X152035000Y-51800000D02*
X157480000Y-46355000D01*
X153830000Y-40800000D02*
X153830000Y-39210000D01*
X172720000Y-44450000D02*
X172720000Y-47260000D01*
X172720000Y-47260000D02*
X167910000Y-52070000D01*
X169070000Y-40800000D02*
X169070000Y-39210000D01*
X172560000Y-44290000D02*
X169070000Y-40800000D01*
X187800000Y-44290000D02*
X184310000Y-40800000D01*
X187960000Y-46990000D02*
X183150000Y-51800000D01*
X184310000Y-40800000D02*
X184310000Y-39210000D01*
X187960000Y-44180000D02*
X187960000Y-46990000D01*
D26*
X174640000Y-124460000D02*
X176545000Y-126365000D01*
X192405000Y-73660000D02*
X192405000Y-80645000D01*
X180355000Y-130175000D02*
X188595000Y-130175000D01*
X157480000Y-126365000D02*
X159385000Y-124460000D01*
X159385000Y-124460000D02*
X174640000Y-124460000D01*
X176545000Y-126365000D02*
X174005000Y-128905000D01*
X176545000Y-126365000D02*
X180355000Y-130175000D01*
X186690000Y-67945000D02*
X192405000Y-73660000D01*
X174005000Y-128905000D02*
X170815000Y-128905000D01*
X175800000Y-115025000D02*
X174625000Y-116200000D01*
X136525000Y-77470000D02*
X160655000Y-101600000D01*
X175800000Y-112485000D02*
X175800000Y-115025000D01*
X164915000Y-101600000D02*
X175800000Y-112485000D01*
X161290000Y-101600000D02*
X164915000Y-101600000D01*
X160655000Y-101600000D02*
X161925000Y-101600000D01*
X189865000Y-93345000D02*
X189865000Y-100965000D01*
X189865000Y-100965000D02*
X187325000Y-103505000D01*
X187325000Y-90805000D02*
X189865000Y-93345000D01*
X161933619Y-97790000D02*
X166370000Y-97790000D01*
X166370000Y-97790000D02*
X177165000Y-108585000D01*
D24*
X146050000Y-34290000D02*
X151130000Y-39370000D01*
X130810000Y-92870000D02*
X130810000Y-104775000D01*
X151130000Y-40640000D02*
X147320000Y-44450000D01*
X176530000Y-34290000D02*
X181610000Y-39370000D01*
X181610000Y-39370000D02*
X181610000Y-40640000D01*
X130810000Y-92870000D02*
X128270000Y-90330000D01*
X166370000Y-40640000D02*
X162560000Y-44450000D01*
X132080000Y-34290000D02*
X146050000Y-34290000D01*
X130810000Y-104775000D02*
X136525000Y-110490000D01*
X128270000Y-90330000D02*
X124460000Y-86520000D01*
X137160000Y-40320000D02*
X133030000Y-44450000D01*
X137160000Y-39370000D02*
X137160000Y-40320000D01*
X181610000Y-40640000D02*
X177800000Y-44450000D01*
X132080000Y-34290000D02*
X137160000Y-39370000D01*
X151130000Y-39370000D02*
X151130000Y-40640000D01*
X166370000Y-39370000D02*
X166370000Y-40640000D01*
X146050000Y-34290000D02*
X161290000Y-34290000D01*
X161290000Y-34290000D02*
X166370000Y-39370000D01*
X161290000Y-34290000D02*
X176530000Y-34290000D01*
D26*
X140970000Y-94615000D02*
X140970000Y-84455000D01*
X140970000Y-84455000D02*
X136525000Y-80010000D01*
X157480000Y-111125000D02*
X140970000Y-94615000D01*
X163378000Y-99243000D02*
X186685000Y-122550000D01*
X136525000Y-74930000D02*
X160838000Y-99243000D01*
X160838000Y-99243000D02*
X163378000Y-99243000D01*
X186685000Y-122550000D02*
X186685000Y-126365000D01*
X195580000Y-82550000D02*
X200025000Y-78105000D01*
X200025000Y-78105000D02*
X200025000Y-41925000D01*
X200025000Y-41925000D02*
X197470000Y-39370000D01*
X169545000Y-82550000D02*
X195580000Y-82550000D01*
X165640000Y-78645000D02*
X169545000Y-82550000D01*
X142780000Y-78645000D02*
X165640000Y-78645000D01*
X136525000Y-72390000D02*
X142780000Y-78645000D01*
X171704000Y-84836000D02*
X162179000Y-84836000D01*
X162179000Y-84836000D02*
X161925000Y-85090000D01*
X172720000Y-85852000D02*
X171704000Y-84836000D01*
M02*
