M48
; DRILL file {KiCad 7.0.1} date Sun Apr 23 09:14:25 2023
; FORMAT={-:-/ absolute / metric / decimal}
; #@! TF.CreationDate,2023-04-23T09:14:25+12:00
; #@! TF.GenerationSoftware,Kicad,Pcbnew,7.0.1
; #@! TF.FileFunction,Plated,1,2,PTH
FMAT,2
METRIC
; #@! TA.AperFunction,Plated,PTH,ViaDrill
T1C0.400
; #@! TA.AperFunction,Plated,PTH,ComponentDrill
T2C0.500
; #@! TA.AperFunction,Plated,PTH,ViaDrill
T3C0.700
; #@! TA.AperFunction,Plated,PTH,ComponentDrill
T4C0.762
; #@! TA.AperFunction,Plated,PTH,ComponentDrill
T5C0.800
; #@! TA.AperFunction,Plated,PTH,ComponentDrill
T6C1.000
; #@! TA.AperFunction,Plated,PTH,ComponentDrill
T7C1.100
; #@! TA.AperFunction,Plated,PTH,ComponentDrill
T8C1.320
; #@! TA.AperFunction,Plated,PTH,ComponentDrill
T9C3.500
%
G90
G05
T1
X157.48Y-111.125
X170.815Y-128.905
X177.165Y-108.585
X188.595Y-130.175
X192.405Y-80.645
T3
X128.905Y-99.695
T4
X109.22Y-46.99
X109.22Y-59.69
X111.76Y-46.99
X111.76Y-59.69
X111.76Y-67.945
X111.76Y-75.565
X113.665Y-120.65
X114.3Y-46.99
X114.3Y-59.69
X114.3Y-67.905
X114.3Y-75.525
X116.205Y-92.71
X116.205Y-120.65
X116.84Y-46.99
X116.84Y-59.69
X116.84Y-67.945
X116.84Y-75.565
X118.745Y-92.71
X118.745Y-120.65
X119.38Y-46.99
X119.38Y-59.69
X121.285Y-92.71
X121.285Y-120.65
X121.92Y-46.99
X121.92Y-59.69
X123.825Y-92.71
X123.825Y-120.65
X124.46Y-46.99
X124.46Y-59.69
X127.0Y-46.99
X127.0Y-59.69
X136.525Y-67.31
X136.525Y-69.85
X136.525Y-72.39
X136.525Y-74.93
X136.525Y-77.47
X136.525Y-80.01
X136.525Y-82.55
X136.525Y-85.09
X136.525Y-87.63
X136.525Y-90.17
X136.525Y-92.71
X136.525Y-95.25
X136.525Y-97.79
X136.525Y-100.33
X136.525Y-102.87
X136.525Y-105.41
X136.525Y-107.95
X136.525Y-110.49
X161.925Y-67.31
X161.925Y-69.85
X161.925Y-72.39
X161.925Y-74.93
X161.925Y-77.47
X161.925Y-80.01
X161.925Y-82.55
X161.925Y-85.09
X161.925Y-87.63
X161.925Y-90.17
X161.925Y-92.71
X161.925Y-95.25
X161.925Y-100.33
X161.925Y-102.87
X161.925Y-105.41
X161.925Y-107.95
X161.925Y-110.49
X161.934Y-97.79
T5
X113.665Y-83.312
X113.665Y-85.812
T6
X113.665Y-126.365
X114.3Y-39.37
X116.205Y-126.365
X116.84Y-39.37
X118.745Y-126.365
X119.38Y-39.37
X121.285Y-126.365
X121.92Y-39.37
X123.825Y-126.365
X137.16Y-39.37
X139.7Y-39.37
X151.13Y-39.37
X153.67Y-39.37
X154.94Y-126.365
X157.48Y-126.365
X160.02Y-126.365
X165.1Y-126.365
X166.37Y-39.37
X167.64Y-126.365
X168.91Y-39.37
X172.72Y-69.85
X172.72Y-72.39
X172.72Y-74.93
X172.72Y-77.47
X172.72Y-85.852
X172.72Y-88.392
X172.72Y-90.932
X172.72Y-93.472
X172.72Y-96.012
X172.72Y-98.552
X174.005Y-126.365
X174.625Y-113.66
X174.625Y-116.2
X176.545Y-126.365
X179.085Y-126.365
X181.61Y-39.37
X184.145Y-126.365
X184.15Y-39.37
X184.15Y-67.945
X186.685Y-126.365
X186.69Y-67.945
X187.325Y-88.265
X187.325Y-90.805
X187.325Y-93.345
X187.325Y-95.885
X187.325Y-98.425
X187.325Y-100.965
X187.325Y-103.505
X187.325Y-111.76
X187.325Y-114.3
X187.325Y-116.84
X194.93Y-39.37
X197.47Y-39.37
X200.01Y-39.37
T7
X133.03Y-44.45
X143.19Y-44.45
X147.32Y-44.45
X157.48Y-44.45
X162.56Y-44.45
X172.72Y-44.45
X177.8Y-44.45
X187.96Y-44.45
T8
X124.46Y-81.12
X124.46Y-83.82
X124.46Y-86.52
X135.57Y-52.07
X138.27Y-52.07
X140.97Y-52.07
X149.54Y-52.07
X152.24Y-52.07
X154.94Y-52.07
X165.21Y-52.07
X167.91Y-52.07
X170.61Y-52.07
X180.18Y-52.07
X182.88Y-52.07
X185.58Y-52.07
T9
X106.68Y-32.512
X106.68Y-134.112
X201.168Y-32.512
X201.168Y-134.112
T2
X180.236Y-80.048G85X180.236Y-78.448
G05
X184.136Y-74.248G85X182.536Y-74.248
G05
X186.436Y-80.048G85X186.436Y-78.448
G05
T0
M30
