%TF.GenerationSoftware,KiCad,Pcbnew,7.0.1*%
%TF.CreationDate,2023-04-23T09:14:57+12:00*%
%TF.ProjectId,Cocktail PCB,436f636b-7461-4696-9c20-5043422e6b69,rev?*%
%TF.SameCoordinates,Original*%
%TF.FileFunction,Drillmap*%
%TF.FilePolarity,Positive*%
%FSLAX45Y45*%
G04 Gerber Fmt 4.5, Leading zero omitted, Abs format (unit mm)*
G04 Created by KiCad (PCBNEW 7.0.1) date 2023-04-23 09:14:57*
%MOMM*%
%LPD*%
G01*
G04 APERTURE LIST*
%ADD10C,0.100000*%
%ADD11C,0.200000*%
G04 APERTURE END LIST*
D10*
X10261600Y-2844800D02*
X20523200Y-2844800D01*
X20523200Y-13843000D01*
X10261600Y-13843000D01*
X10261600Y-2844800D01*
D11*
X10504219Y-14160524D02*
X10504219Y-13960524D01*
X10504219Y-13960524D02*
X10551838Y-13960524D01*
X10551838Y-13960524D02*
X10580410Y-13970048D01*
X10580410Y-13970048D02*
X10599457Y-13989095D01*
X10599457Y-13989095D02*
X10608981Y-14008143D01*
X10608981Y-14008143D02*
X10618505Y-14046238D01*
X10618505Y-14046238D02*
X10618505Y-14074809D01*
X10618505Y-14074809D02*
X10608981Y-14112905D01*
X10608981Y-14112905D02*
X10599457Y-14131952D01*
X10599457Y-14131952D02*
X10580410Y-14151000D01*
X10580410Y-14151000D02*
X10551838Y-14160524D01*
X10551838Y-14160524D02*
X10504219Y-14160524D01*
X10704219Y-14160524D02*
X10704219Y-14027190D01*
X10704219Y-14065286D02*
X10713743Y-14046238D01*
X10713743Y-14046238D02*
X10723267Y-14036714D01*
X10723267Y-14036714D02*
X10742314Y-14027190D01*
X10742314Y-14027190D02*
X10761362Y-14027190D01*
X10828029Y-14160524D02*
X10828029Y-14027190D01*
X10828029Y-13960524D02*
X10818505Y-13970048D01*
X10818505Y-13970048D02*
X10828029Y-13979571D01*
X10828029Y-13979571D02*
X10837552Y-13970048D01*
X10837552Y-13970048D02*
X10828029Y-13960524D01*
X10828029Y-13960524D02*
X10828029Y-13979571D01*
X10951838Y-14160524D02*
X10932790Y-14151000D01*
X10932790Y-14151000D02*
X10923267Y-14131952D01*
X10923267Y-14131952D02*
X10923267Y-13960524D01*
X11056600Y-14160524D02*
X11037552Y-14151000D01*
X11037552Y-14151000D02*
X11028029Y-14131952D01*
X11028029Y-14131952D02*
X11028029Y-13960524D01*
X11285171Y-14160524D02*
X11285171Y-13960524D01*
X11285171Y-13960524D02*
X11351838Y-14103381D01*
X11351838Y-14103381D02*
X11418505Y-13960524D01*
X11418505Y-13960524D02*
X11418505Y-14160524D01*
X11599457Y-14160524D02*
X11599457Y-14055762D01*
X11599457Y-14055762D02*
X11589933Y-14036714D01*
X11589933Y-14036714D02*
X11570886Y-14027190D01*
X11570886Y-14027190D02*
X11532790Y-14027190D01*
X11532790Y-14027190D02*
X11513743Y-14036714D01*
X11599457Y-14151000D02*
X11580409Y-14160524D01*
X11580409Y-14160524D02*
X11532790Y-14160524D01*
X11532790Y-14160524D02*
X11513743Y-14151000D01*
X11513743Y-14151000D02*
X11504219Y-14131952D01*
X11504219Y-14131952D02*
X11504219Y-14112905D01*
X11504219Y-14112905D02*
X11513743Y-14093857D01*
X11513743Y-14093857D02*
X11532790Y-14084333D01*
X11532790Y-14084333D02*
X11580409Y-14084333D01*
X11580409Y-14084333D02*
X11599457Y-14074809D01*
X11694695Y-14027190D02*
X11694695Y-14227190D01*
X11694695Y-14036714D02*
X11713743Y-14027190D01*
X11713743Y-14027190D02*
X11751838Y-14027190D01*
X11751838Y-14027190D02*
X11770886Y-14036714D01*
X11770886Y-14036714D02*
X11780409Y-14046238D01*
X11780409Y-14046238D02*
X11789933Y-14065286D01*
X11789933Y-14065286D02*
X11789933Y-14122428D01*
X11789933Y-14122428D02*
X11780409Y-14141476D01*
X11780409Y-14141476D02*
X11770886Y-14151000D01*
X11770886Y-14151000D02*
X11751838Y-14160524D01*
X11751838Y-14160524D02*
X11713743Y-14160524D01*
X11713743Y-14160524D02*
X11694695Y-14151000D01*
X11875648Y-14141476D02*
X11885171Y-14151000D01*
X11885171Y-14151000D02*
X11875648Y-14160524D01*
X11875648Y-14160524D02*
X11866124Y-14151000D01*
X11866124Y-14151000D02*
X11875648Y-14141476D01*
X11875648Y-14141476D02*
X11875648Y-14160524D01*
X11875648Y-14036714D02*
X11885171Y-14046238D01*
X11885171Y-14046238D02*
X11875648Y-14055762D01*
X11875648Y-14055762D02*
X11866124Y-14046238D01*
X11866124Y-14046238D02*
X11875648Y-14036714D01*
X11875648Y-14036714D02*
X11875648Y-14055762D01*
M02*
