%TF.GenerationSoftware,KiCad,Pcbnew,7.0.1*%
%TF.CreationDate,2023-04-23T09:13:03+12:00*%
%TF.ProjectId,Cocktail PCB,436f636b-7461-4696-9c20-5043422e6b69,rev?*%
%TF.SameCoordinates,Original*%
%TF.FileFunction,Soldermask,Bot*%
%TF.FilePolarity,Negative*%
%FSLAX46Y46*%
G04 Gerber Fmt 4.6, Leading zero omitted, Abs format (unit mm)*
G04 Created by KiCad (PCBNEW 7.0.1) date 2023-04-23 09:13:03*
%MOMM*%
%LPD*%
G01*
G04 APERTURE LIST*
%ADD10R,0.990600X3.200400*%
%ADD11R,3.200400X0.990600*%
%ADD12C,7.000000*%
%ADD13R,1.700000X1.700000*%
%ADD14O,1.700000X1.700000*%
%ADD15R,2.200000X2.200000*%
%ADD16O,2.200000X2.200000*%
%ADD17R,1.980000X1.980000*%
%ADD18C,1.980000*%
%ADD19R,1.600000X1.600000*%
%ADD20C,1.600000*%
%ADD21C,1.524000*%
G04 APERTURE END LIST*
D10*
X180236000Y-79248000D03*
X186436000Y-79248000D03*
D11*
X183336001Y-74248000D03*
D12*
X201168000Y-134112000D03*
X106680000Y-134112000D03*
X201168000Y-32512000D03*
X106680000Y-32512000D03*
D13*
X174625000Y-113660000D03*
D14*
X174625000Y-116200000D03*
D13*
X181610000Y-39370000D03*
D14*
X184150000Y-39370000D03*
D15*
X162560000Y-44450000D03*
D16*
X172720000Y-44450000D03*
D13*
X184145000Y-126365000D03*
D14*
X186685000Y-126365000D03*
D13*
X200010000Y-39370000D03*
D14*
X197470000Y-39370000D03*
X194930000Y-39370000D03*
D17*
X149540000Y-52070000D03*
D18*
X152240000Y-52070000D03*
X154940000Y-52070000D03*
D15*
X147320000Y-44450000D03*
D16*
X157480000Y-44450000D03*
D17*
X180180000Y-52070000D03*
D18*
X182880000Y-52070000D03*
X185580000Y-52070000D03*
D13*
X137160000Y-39370000D03*
D14*
X139700000Y-39370000D03*
D13*
X186690000Y-67945000D03*
D14*
X184150000Y-67945000D03*
D19*
X113665000Y-83312000D03*
D20*
X113665000Y-85812000D03*
D13*
X172720000Y-77470000D03*
D14*
X172720000Y-74930000D03*
X172720000Y-72390000D03*
X172720000Y-69850000D03*
D13*
X123825000Y-126365000D03*
D14*
X121285000Y-126365000D03*
X118745000Y-126365000D03*
X116205000Y-126365000D03*
X113665000Y-126365000D03*
D13*
X165100000Y-126365000D03*
D14*
X167640000Y-126365000D03*
D13*
X121920000Y-39370000D03*
D14*
X119380000Y-39370000D03*
X116840000Y-39370000D03*
X114300000Y-39370000D03*
D13*
X187325000Y-111760000D03*
D14*
X187325000Y-114300000D03*
X187325000Y-116840000D03*
D21*
X111760000Y-75565000D03*
X114300000Y-75525000D03*
X116840000Y-75565000D03*
X116840000Y-67945000D03*
X114300000Y-67905000D03*
X111760000Y-67945000D03*
D13*
X151130000Y-39370000D03*
D14*
X153670000Y-39370000D03*
D17*
X124460000Y-86520000D03*
D18*
X124460000Y-83820000D03*
X124460000Y-81120000D03*
D21*
X136525000Y-67310000D03*
X136525000Y-69850000D03*
X136525000Y-72390000D03*
X136525000Y-74930000D03*
X136525000Y-77470000D03*
X136525000Y-80010000D03*
X136525000Y-82550000D03*
X136525000Y-85090000D03*
X136525000Y-87630000D03*
X136525000Y-90170000D03*
X136525000Y-92710000D03*
X136525000Y-95250000D03*
X136525000Y-97790000D03*
X136525000Y-100330000D03*
X136525000Y-102870000D03*
X136525000Y-105410000D03*
X136525000Y-107950000D03*
X136525000Y-110490000D03*
X161925000Y-67310000D03*
X161925000Y-69850000D03*
X161925000Y-72390000D03*
X161925000Y-74930000D03*
X161925000Y-77470000D03*
X161925000Y-80010000D03*
X161925000Y-82550000D03*
X161925000Y-85090000D03*
X161925000Y-87630000D03*
X161925000Y-90170000D03*
X161925000Y-92710000D03*
X161925000Y-95250000D03*
X161933619Y-97790000D03*
X161925000Y-100330000D03*
X161925000Y-102870000D03*
X161925000Y-105410000D03*
X161925000Y-107950000D03*
X161925000Y-110490000D03*
D17*
X135570000Y-52070000D03*
D18*
X138270000Y-52070000D03*
X140970000Y-52070000D03*
D17*
X165210000Y-52070000D03*
D18*
X167910000Y-52070000D03*
X170610000Y-52070000D03*
D21*
X116205000Y-92710000D03*
X118745000Y-92710000D03*
X121285000Y-92710000D03*
X123825000Y-92710000D03*
X113665000Y-120650000D03*
X116205000Y-120650000D03*
X118745000Y-120650000D03*
X121285000Y-120650000D03*
X123825000Y-120650000D03*
D15*
X177800000Y-44450000D03*
D16*
X187960000Y-44450000D03*
D13*
X187325000Y-88265000D03*
D14*
X187325000Y-90805000D03*
X187325000Y-93345000D03*
X187325000Y-95885000D03*
X187325000Y-98425000D03*
X187325000Y-100965000D03*
X187325000Y-103505000D03*
D13*
X174005000Y-126365000D03*
D14*
X176545000Y-126365000D03*
X179085000Y-126365000D03*
D13*
X154940000Y-126365000D03*
D14*
X157480000Y-126365000D03*
X160020000Y-126365000D03*
D15*
X133030000Y-44450000D03*
D16*
X143190000Y-44450000D03*
D13*
X166370000Y-39370000D03*
D14*
X168910000Y-39370000D03*
D13*
X172720000Y-85852000D03*
D14*
X172720000Y-88392000D03*
X172720000Y-90932000D03*
X172720000Y-93472000D03*
X172720000Y-96012000D03*
X172720000Y-98552000D03*
D21*
X109220000Y-59690000D03*
X111760000Y-59690000D03*
X114300000Y-59690000D03*
X116840000Y-59690000D03*
X119380000Y-59690000D03*
X121920000Y-59690000D03*
X124460000Y-59690000D03*
X127000000Y-59690000D03*
X109220000Y-46990000D03*
X111760000Y-46990000D03*
X114300000Y-46990000D03*
X116840000Y-46990000D03*
X119380000Y-46990000D03*
X121920000Y-46990000D03*
X124460000Y-46990000D03*
X127000000Y-46990000D03*
M02*
